<svg aria-hidden="true" style="position: absolute; width: 0; height: 0; overflow: hidden;" version="1.1" xmlns="http://www.w3.org/2000/svg" xmlns:xlink="http://www.w3.org/1999/xlink">
<defs>
<symbol id="icon-pen" viewBox="0 0 32 32">
<path d="M29.024 6.499l-2.467 2.467-3.523-3.523 2.467-2.467c0.973-0.973 2.551-0.973 3.523 0s0.973 2.55 0 3.523zM27.614 9.317c0.195-0.194 0.511-0.194 0.705 0 0.195 0.195 0.195 0.511 0 0.705l-9.16 9.161c-0.195 0.194-0.511 0.194-0.705 0s-0.194-0.51 0-0.704l5.99-5.99-4.934-4.934 2.114-2.113 4.933 4.933 1.057-1.058zM19.511 8.966l3.523 3.523-14.094 14.094-3.523-3.523 14.094-14.094zM2.246 29.754l2.466-5.989 3.523 3.523-5.989 2.466z"></path>
</symbol>
<symbol id="icon-puzzle" viewBox="0 0 35 32">
<path d="M20.042 3.907c0-1.945-1.559-3.907-5.042-3.907-3.067 0-5.129 1.57-5.129 3.907 0 1.364 0.552 1.986 0.917 2.398 0.193 0.217 0.271 0.315 0.271 0.413 0 0.162 0 0.26-0.558 0.282h-6.098c-2.345 0-4.403 1.869-4.403 4v3.732c0.038 0.944 0.571 1.531 1.392 1.531 0.467 0 0.813-0.267 1.149-0.526 0.45-0.345 0.959-0.737 1.959-0.737 1.696 0 3.5 1.402 3.5 4 0 2.629-1.828 4.462-3.469 4.462-0.99 0-1.508-0.429-1.966-0.807-0.343-0.284-0.697-0.578-1.174-0.578-0.82 0-1.354 0.587-1.392 1.551v4.102c0.001 2.235 2.1 4.27 4.404 4.27h6.129c0.928-0.038 1.527-0.585 1.527-1.396 0-0.487-0.277-0.8-0.522-1.076-0.328-0.369-0.666-0.75-0.666-1.734 0-1.766 1.604-2.907 4.085-2.907s4.086 1.141 4.086 2.907c0 0.984-0.339 1.365-0.666 1.734-0.245 0.276-0.523 0.589-0.523 1.076 0 0.822 0.585 1.356 1.548 1.395l3.941 0.001c2.152 0 3.656-1.677 3.656-4.078v-4.65c0.026-0.122 0.334-0.588 0.804-0.588 0.096 0 0.193 0.079 0.409 0.271 0.41 0.367 1.031 0.922 2.393 0.922 2.184-0.001 4.396-1.675 4.396-4.877 0-3.454-2.009-5-4-5-1.344 0-2.12 0.614-2.634 1.020-0.228 0.18-0.442 0.35-0.564 0.35-0.471 0-0.779-0.468-0.802-0.571-0.001-0.008-0.001-0.016-0.002-0.024v-3.583c0-2.429-1.538-4.192-3.656-4.192h-3.921c-0.013-0.001-0.026-0.002-0.040-0.003-0.528-0.020-0.528-0.117-0.528-0.279 0-0.098 0.078-0.195 0.271-0.413 0.365-0.411 0.918-1.034 0.918-2.398zM18.376 5.642c-0.245 0.276-0.523 0.59-0.523 1.077 0 0.55 0.251 1.212 1.471 1.277 0.023 0.003 0.046 0.004 0.070 0.004h3.948c1.744 0 2.658 1.606 2.658 3.192v3.633c0 0.036-0.007 0.071 0 0.105 0.092 0.611 0.842 1.439 1.802 1.439 0.47 0 0.816-0.274 1.185-0.565 0.476-0.377 1.017-0.804 2.013-0.804 1.822 0 3 1.57 3 4 0 2.664-1.761 3.876-3.396 3.876-0.979 0-1.359-0.339-1.727-0.667-0.276-0.246-0.589-0.525-1.075-0.525-0.96 0-1.711 0.829-1.802 1.44-0.007 0.034 0 0.069 0 0.105v4.694c0 1.531-0.823 3.077-2.658 3.077h-3.921c-0.568-0.023-0.568-0.285-0.568-0.396 0-0.097 0.078-0.195 0.271-0.413 0.365-0.412 0.918-1.034 0.918-2.398 0-1.945-1.572-3.907-5.086-3.907-3.041 0-5.085 1.57-5.085 3.907 0 1.364 0.552 1.986 0.918 2.398 0.192 0.217 0.271 0.315 0.271 0.413 0 0.112 0 0.374-0.548 0.396h-6.109c-1.717 0-3.403-1.62-3.403-3.27v-4.082c0.022-0.571 0.281-0.571 0.392-0.571 0.116 0 0.32 0.169 0.537 0.348 0.498 0.413 1.253 1.037 2.603 1.037 2.157 0 4.468-2.195 4.468-5.462 0-3.248-2.318-5-4.5-5-1.34 0-2.079 0.568-2.568 0.945-0.222 0.171-0.414 0.318-0.54 0.318-0.11 0-0.369 0-0.392-0.551v-3.712c0-1.768 1.794-3 3.403-3h6.115c0.016 0 0.031-0.001 0.047-0.002v0c1.235-0.046 1.494-0.722 1.494-1.28 0-0.487-0.277-0.8-0.522-1.076-0.328-0.369-0.666-0.75-0.666-1.735 0-1.739 1.659-2.907 4.129-2.907 2.455 0 4.042 1.141 4.042 2.907 0 0.984-0.339 1.366-0.666 1.735z"></path>
</symbol>
<symbol id="icon-notebook" viewBox="0 0 32 32">
<path d="M22 3h2.003c1.107 0 1.997 0.899 1.997 2.007v22.985c0 1.109-0.894 2.007-1.997 2.007h-15.005c-1.107 0-1.997-0.899-1.997-2.007v-22.985c0-1.109 0.894-2.007 1.997-2.007h7.003v13l3-3 3 3v-13zM5 10v1h2v-1h-2zM5 14v1h2v-1h-2zM5 6v1h2v-1h-2zM5 22v1h2v-1h-2zM5 26v1h2v-1h-2zM5 18v1h2v-1h-2zM7 10v1h2v-1h-2zM7 14v1h2v-1h-2zM7 6v1h2v-1h-2zM7 22v1h2v-1h-2zM7 26v1h2v-1h-2zM7 18v1h2v-1h-2zM17 3v10.6l2-2 2 2v-10.6h-4z"></path>
</symbol>
<symbol id="icon-user" viewBox="0 0 24 32">
<path d="M12 16c-6.625 0-12 5.375-12 12 0 2.211 1.789 4 4 4h16c2.211 0 4-1.789 4-4 0-6.625-5.375-12-12-12zM6 6c0-3.314 2.686-6 6-6s6 2.686 6 6c0 3.314-2.686 6-6 6s-6-2.686-6-6z"></path>
</symbol>
<symbol id="icon-moon-stroke" viewBox="0 0 32 32">
<path d="M5.895 9.148c0.848 8.959 8 16.109 16.957 16.953-1.91 1.211-4.152 1.898-6.5 1.898-6.813 0.001-12.352-5.538-12.352-12.353 0-2.347 0.688-4.587 1.895-6.498zM11.844 0c-6.824 1.969-11.844 8.189-11.844 15.646 0 9.034 7.32 16.354 16.352 16.354 7.457 0 13.68-5.023 15.648-11.844-2.18 1.258-4.672 2.031-7.367 2.031-8.188 0-14.82-6.639-14.82-14.822-0.001-2.695 0.773-5.187 2.031-7.365v0z"></path>
</symbol>
<symbol id="icon-phone" viewBox="0 0 32 32">
<path d="M22 20c-2 2-2 4-4 4s-4-2-6-4-4-4-4-6 2-2 4-4-4-8-6-8-6 6-6 6c0 4 4.109 12.109 8 16s12 8 16 8c0 0 6-4 6-6s-6-8-8-6z"></path>
</symbol>
<symbol id="icon-info" viewBox="0 0 32 32">
<path d="M14 9.5c0-0.825 0.675-1.5 1.5-1.5h1c0.825 0 1.5 0.675 1.5 1.5v1c0 0.825-0.675 1.5-1.5 1.5h-1c-0.825 0-1.5-0.675-1.5-1.5v-1z"></path>
<path d="M20 24h-8v-2h2v-6h-2v-2h6v8h2z"></path>
<path d="M16 0c-8.837 0-16 7.163-16 16s7.163 16 16 16 16-7.163 16-16-7.163-16-16-16zM16 29c-7.18 0-13-5.82-13-13s5.82-13 13-13 13 5.82 13 13-5.82 13-13 13z"></path>
</symbol>
<symbol id="icon-facebook" viewBox="0 0 32 32">
<path d="M19 6h5v-6h-5c-3.86 0-7 3.14-7 7v3h-4v6h4v16h6v-16h5l1-6h-6v-3c0-0.542 0.458-1 1-1z"></path>
</symbol>
<symbol id="icon-instagram" viewBox="0 0 32 32">
<path d="M16 2.881c4.275 0 4.781 0.019 6.462 0.094 1.563 0.069 2.406 0.331 2.969 0.55 0.744 0.288 1.281 0.638 1.837 1.194 0.563 0.563 0.906 1.094 1.2 1.838 0.219 0.563 0.481 1.412 0.55 2.969 0.075 1.688 0.094 2.194 0.094 6.463s-0.019 4.781-0.094 6.463c-0.069 1.563-0.331 2.406-0.55 2.969-0.288 0.744-0.637 1.281-1.194 1.837-0.563 0.563-1.094 0.906-1.837 1.2-0.563 0.219-1.413 0.481-2.969 0.55-1.688 0.075-2.194 0.094-6.463 0.094s-4.781-0.019-6.463-0.094c-1.563-0.069-2.406-0.331-2.969-0.55-0.744-0.288-1.281-0.637-1.838-1.194-0.563-0.563-0.906-1.094-1.2-1.837-0.219-0.563-0.481-1.413-0.55-2.969-0.075-1.688-0.094-2.194-0.094-6.463s0.019-4.781 0.094-6.463c0.069-1.563 0.331-2.406 0.55-2.969 0.288-0.744 0.638-1.281 1.194-1.838 0.563-0.563 1.094-0.906 1.838-1.2 0.563-0.219 1.412-0.481 2.969-0.55 1.681-0.075 2.188-0.094 6.463-0.094zM16 0c-4.344 0-4.887 0.019-6.594 0.094-1.7 0.075-2.869 0.35-3.881 0.744-1.056 0.412-1.95 0.956-2.837 1.85-0.894 0.888-1.438 1.781-1.85 2.831-0.394 1.019-0.669 2.181-0.744 3.881-0.075 1.713-0.094 2.256-0.094 6.6s0.019 4.887 0.094 6.594c0.075 1.7 0.35 2.869 0.744 3.881 0.413 1.056 0.956 1.95 1.85 2.837 0.887 0.887 1.781 1.438 2.831 1.844 1.019 0.394 2.181 0.669 3.881 0.744 1.706 0.075 2.25 0.094 6.594 0.094s4.888-0.019 6.594-0.094c1.7-0.075 2.869-0.35 3.881-0.744 1.050-0.406 1.944-0.956 2.831-1.844s1.438-1.781 1.844-2.831c0.394-1.019 0.669-2.181 0.744-3.881 0.075-1.706 0.094-2.25 0.094-6.594s-0.019-4.887-0.094-6.594c-0.075-1.7-0.35-2.869-0.744-3.881-0.394-1.063-0.938-1.956-1.831-2.844-0.887-0.887-1.781-1.438-2.831-1.844-1.019-0.394-2.181-0.669-3.881-0.744-1.712-0.081-2.256-0.1-6.6-0.1v0z"></path>
<path d="M16 7.781c-4.537 0-8.219 3.681-8.219 8.219s3.681 8.219 8.219 8.219 8.219-3.681 8.219-8.219c0-4.537-3.681-8.219-8.219-8.219zM16 21.331c-2.944 0-5.331-2.387-5.331-5.331s2.387-5.331 5.331-5.331c2.944 0 5.331 2.387 5.331 5.331s-2.387 5.331-5.331 5.331z"></path>
<path d="M26.462 7.456c0 1.060-0.859 1.919-1.919 1.919s-1.919-0.859-1.919-1.919c0-1.060 0.859-1.919 1.919-1.919s1.919 0.859 1.919 1.919z"></path>
</symbol>
<symbol id="icon-whatsapp" viewBox="0 0 32 32">
<path d="M27.281 4.65c-2.994-3-6.975-4.65-11.219-4.65-8.738 0-15.85 7.112-15.85 15.856 0 2.794 0.731 5.525 2.119 7.925l-2.25 8.219 8.406-2.206c2.319 1.262 4.925 1.931 7.575 1.931h0.006c0 0 0 0 0 0 8.738 0 15.856-7.113 15.856-15.856 0-4.238-1.65-8.219-4.644-11.219zM16.069 29.050v0c-2.369 0-4.688-0.637-6.713-1.837l-0.481-0.288-4.987 1.306 1.331-4.863-0.313-0.5c-1.325-2.094-2.019-4.519-2.019-7.012 0-7.269 5.912-13.181 13.188-13.181 3.519 0 6.831 1.375 9.319 3.862 2.488 2.494 3.856 5.8 3.856 9.325-0.006 7.275-5.919 13.188-13.181 13.188zM23.294 19.175c-0.394-0.2-2.344-1.156-2.706-1.288s-0.625-0.2-0.894 0.2c-0.262 0.394-1.025 1.288-1.256 1.556-0.231 0.262-0.462 0.3-0.856 0.1s-1.675-0.619-3.188-1.969c-1.175-1.050-1.975-2.35-2.206-2.744s-0.025-0.613 0.175-0.806c0.181-0.175 0.394-0.463 0.594-0.694s0.262-0.394 0.394-0.662c0.131-0.262 0.069-0.494-0.031-0.694s-0.894-2.15-1.219-2.944c-0.319-0.775-0.65-0.669-0.894-0.681-0.231-0.012-0.494-0.012-0.756-0.012s-0.694 0.1-1.056 0.494c-0.363 0.394-1.387 1.356-1.387 3.306s1.419 3.831 1.619 4.1c0.2 0.262 2.794 4.269 6.769 5.981 0.944 0.406 1.681 0.65 2.256 0.837 0.95 0.3 1.813 0.256 2.494 0.156 0.762-0.113 2.344-0.956 2.675-1.881s0.331-1.719 0.231-1.881c-0.094-0.175-0.356-0.275-0.756-0.475z"></path>
</symbol>
<symbol id="icon-twitter1" viewBox="0 0 32 32">
<path d="M32 7.075c-1.175 0.525-2.444 0.875-3.769 1.031 1.356-0.813 2.394-2.1 2.887-3.631-1.269 0.75-2.675 1.3-4.169 1.594-1.2-1.275-2.906-2.069-4.794-2.069-3.625 0-6.563 2.938-6.563 6.563 0 0.512 0.056 1.012 0.169 1.494-5.456-0.275-10.294-2.888-13.531-6.862-0.563 0.969-0.887 2.1-0.887 3.3 0 2.275 1.156 4.287 2.919 5.463-1.075-0.031-2.087-0.331-2.975-0.819 0 0.025 0 0.056 0 0.081 0 3.181 2.263 5.838 5.269 6.437-0.55 0.15-1.131 0.231-1.731 0.231-0.425 0-0.831-0.044-1.237-0.119 0.838 2.606 3.263 4.506 6.131 4.563-2.25 1.762-5.075 2.813-8.156 2.813-0.531 0-1.050-0.031-1.569-0.094 2.913 1.869 6.362 2.95 10.069 2.95 12.075 0 18.681-10.006 18.681-18.681 0-0.287-0.006-0.569-0.019-0.85 1.281-0.919 2.394-2.075 3.275-3.394z"></path>
</symbol>
<symbol id="icon-twitch" viewBox="0 0 32 32">
<path d="M3 0l-3 5v23h8v4h4l4-4h5l9-9v-19h-27zM26 17l-5 5h-5l-4 4v-4h-6v-18h20v13z"></path>
<path d="M19 8h3v8h-3v-8z"></path>
<path d="M13 8h3v8h-3v-8z"></path>
</symbol>
<symbol id="icon-github" viewBox="0 0 32 32">
<path d="M16 0.395c-8.836 0-16 7.163-16 16 0 7.069 4.585 13.067 10.942 15.182 0.8 0.148 1.094-0.347 1.094-0.77 0-0.381-0.015-1.642-0.022-2.979-4.452 0.968-5.391-1.888-5.391-1.888-0.728-1.849-1.776-2.341-1.776-2.341-1.452-0.993 0.11-0.973 0.11-0.973 1.606 0.113 2.452 1.649 2.452 1.649 1.427 2.446 3.743 1.739 4.656 1.33 0.143-1.034 0.558-1.74 1.016-2.14-3.554-0.404-7.29-1.777-7.29-7.907 0-1.747 0.625-3.174 1.649-4.295-0.166-0.403-0.714-2.030 0.155-4.234 0 0 1.344-0.43 4.401 1.64 1.276-0.355 2.645-0.532 4.005-0.539 1.359 0.006 2.729 0.184 4.008 0.539 3.054-2.070 4.395-1.64 4.395-1.64 0.871 2.204 0.323 3.831 0.157 4.234 1.026 1.12 1.647 2.548 1.647 4.295 0 6.145-3.743 7.498-7.306 7.895 0.574 0.497 1.085 1.47 1.085 2.963 0 2.141-0.019 3.864-0.019 4.391 0 0.426 0.288 0.925 1.099 0.768 6.354-2.118 10.933-8.113 10.933-15.18 0-8.837-7.164-16-16-16z"></path>
</symbol>
<symbol id="icon-attach_file" viewBox="0 0 24 24">
<path d="M16.5 6h1.5v11.484q0 2.297-1.594 3.914t-3.891 1.617-3.914-1.617-1.617-3.914v-12.469q0-1.641 1.195-2.836t2.836-1.195 2.813 1.195 1.172 2.836v10.5q0 1.031-0.727 1.758t-1.758 0.727-1.781-0.727-0.75-1.758v-9.516h1.5v9.516q0 0.422 0.305 0.703t0.727 0.281 0.703-0.281 0.281-0.703v-10.5q0-1.031-0.727-1.781t-1.758-0.75-1.781 0.75-0.75 1.781v12.469q0 1.641 1.195 2.836t2.836 1.195 2.813-1.195 1.172-2.836v-11.484z"></path>
</symbol>
<symbol id="icon-send" viewBox="0 0 24 24">
<path d="M2.016 21v-6.984l15-2.016-15-2.016v-6.984l21 9z"></path>
</symbol>
<symbol id="icon-launch" viewBox="0 0 24 24">
<path d="M14.016 3h6.984v6.984h-2.016v-3.563l-9.797 9.797-1.406-1.406 9.797-9.797h-3.563v-2.016zM18.984 18.984v-6.984h2.016v6.984q0 0.797-0.609 1.406t-1.406 0.609h-13.969q-0.844 0-1.43-0.586t-0.586-1.43v-13.969q0-0.844 0.586-1.43t1.43-0.586h6.984v2.016h-6.984v13.969h13.969z"></path>
</symbol>
<symbol id="icon-filter_list" viewBox="0 0 24 24">
<path d="M6 12.984v-1.969h12v1.969h-12zM3 6h18v2.016h-18v-2.016zM9.984 18v-2.016h4.031v2.016h-4.031z"></path>
</symbol>
<symbol id="icon-wb_sunny" viewBox="0 0 24 24">
<path d="M3.563 18.563l1.781-1.828 1.406 1.406-1.781 1.828zM11.016 22.453v-2.953h1.969v2.953h-1.969zM12 5.484q2.484 0 4.242 1.758t1.758 4.242-1.758 4.242-4.242 1.758-4.242-1.758-1.758-4.242 1.758-4.242 4.242-1.758zM20.016 10.5h3v2.016h-3v-2.016zM17.25 18.141l1.406-1.359 1.781 1.781-1.406 1.406zM20.438 4.453l-1.781 1.781-1.406-1.406 1.781-1.781zM12.984 0.563v2.953h-1.969v-2.953h1.969zM3.984 10.5v2.016h-3v-2.016h3zM6.75 4.828l-1.406 1.406-1.781-1.781 1.406-1.406z"></path>
</symbol>
<symbol id="icon-camera" viewBox="0 0 30 28">
<path d="M15 10.5c2.484 0 4.5 2.016 4.5 4.5s-2.016 4.5-4.5 4.5-4.5-2.016-4.5-4.5 2.016-4.5 4.5-4.5zM26 4c2.203 0 4 1.797 4 4v14c0 2.203-1.797 4-4 4h-22c-2.203 0-4-1.797-4-4v-14c0-2.203 1.797-4 4-4h3.5l0.797-2.125c0.391-1.031 1.609-1.875 2.703-1.875h8c1.094 0 2.312 0.844 2.703 1.875l0.797 2.125h3.5zM15 22c3.859 0 7-3.141 7-7s-3.141-7-7-7-7 3.141-7 7 3.141 7 7 7z"></path>
</symbol>
<symbol id="icon-linkedin-square" viewBox="0 0 24 28">
<path d="M3.703 22.094h3.609v-10.844h-3.609v10.844zM7.547 7.906c-0.016-1.062-0.781-1.875-2.016-1.875s-2.047 0.812-2.047 1.875c0 1.031 0.781 1.875 2 1.875h0.016c1.266 0 2.047-0.844 2.047-1.875zM16.688 22.094h3.609v-6.219c0-3.328-1.781-4.875-4.156-4.875-1.937 0-2.797 1.078-3.266 1.828h0.031v-1.578h-3.609s0.047 1.016 0 10.844v0h3.609v-6.062c0-0.313 0.016-0.641 0.109-0.875 0.266-0.641 0.859-1.313 1.859-1.313 1.297 0 1.813 0.984 1.813 2.453v5.797zM24 6.5v15c0 2.484-2.016 4.5-4.5 4.5h-15c-2.484 0-4.5-2.016-4.5-4.5v-15c0-2.484 2.016-4.5 4.5-4.5h15c2.484 0 4.5 2.016 4.5 4.5z"></path>
</symbol>
<symbol id="icon-toggle-on" viewBox="0 0 32 28">
<path d="M0 14c0-5.516 4.484-10 10-10h12c5.516 0 10 4.484 10 10s-4.484 10-10 10h-12c-5.516 0-10-4.484-10-10zM22 22c4.406 0 8-3.594 8-8s-3.594-8-8-8-8 3.594-8 8 3.594 8 8 8z"></path>
</symbol>
<symbol id="icon-toggle-off" viewBox="0 0 32 28">
<path d="M18 14c0-4.406-3.594-8-8-8s-8 3.594-8 8 3.594 8 8 8 8-3.594 8-8zM30 14c0-4.406-3.594-8-8-8h-6.031c2.438 1.828 4.031 4.734 4.031 8s-1.594 6.172-4.031 8h6.031c4.406 0 8-3.594 8-8zM32 14c0 5.516-4.484 10-10 10h-12c-5.516 0-10-4.484-10-10s4.484-10 10-10h12c5.516 0 10 4.484 10 10z"></path>
</symbol>
<symbol id="icon-discord" viewBox="0 0 32 32">
<path fill="#7289da" style="fill: var(--color1, #7289da)" d="M26.963 0c1.875 0 3.387 1.516 3.476 3.3v28.7l-3.569-3.031-1.96-1.784-2.139-1.864 0.893 2.94h-18.717c-1.869 0-3.387-1.42-3.387-3.301v-21.653c0-1.784 1.52-3.303 3.393-3.303h22zM18.805 7.577h-0.040l-0.269 0.267c2.764 0.8 4.101 2.049 4.101 2.049-1.781-0.891-3.387-1.336-4.992-1.516-1.16-0.18-2.32-0.085-3.3 0h-0.267c-0.627 0-1.96 0.267-3.747 0.98-0.623 0.271-0.98 0.448-0.98 0.448s1.336-1.336 4.28-2.049l-0.18-0.18c0 0-2.229-0.085-4.636 1.693 0 0-2.407 4.192-2.407 9.36 0 0 1.333 2.32 4.991 2.408 0 0 0.533-0.711 1.073-1.336-2.053-0.624-2.853-1.872-2.853-1.872s0.179 0.088 0.447 0.267h0.080c0.040 0 0.059 0.020 0.080 0.040v0.008c0.021 0.021 0.040 0.040 0.080 0.040 0.44 0.181 0.88 0.36 1.24 0.533 0.621 0.269 1.42 0.537 2.4 0.715 1.24 0.18 2.661 0.267 4.28 0 0.8-0.18 1.6-0.356 2.4-0.713 0.52-0.267 1.16-0.533 1.863-0.983 0 0-0.8 1.248-2.94 1.872 0.44 0.621 1.060 1.333 1.060 1.333 3.659-0.080 5.080-2.4 5.16-2.301 0-5.16-2.42-9.36-2.42-9.36-2.18-1.619-4.22-1.68-4.58-1.68zM19.029 13.461c0.937 0 1.693 0.8 1.693 1.78 0 0.987-0.76 1.787-1.693 1.787s-1.693-0.8-1.693-1.779c0.003-0.987 0.764-1.784 1.693-1.788zM12.972 13.461c0.933 0 1.688 0.8 1.688 1.78 0 0.987-0.76 1.787-1.693 1.787s-1.693-0.8-1.693-1.779c0-0.987 0.76-1.784 1.699-1.788z"></path>
</symbol>
<symbol id="icon-briefcase" viewBox="0 0 20 20">
<path d="M9 10h2v2h9c0 0-0.149-4.459-0.2-5.854-0.050-1.326-0.525-2.146-2-2.146h-3.208c-0.497-0.938-1.032-1.945-1.197-2.256-0.331-0.623-0.444-0.744-1.179-0.744h-4.433c-0.735 0-0.847 0.121-1.179 0.744-0.165 0.311-0.7 1.318-1.196 2.256h-3.209c-1.476 0-1.945 0.82-2 2.146s-0.199 5.854-0.199 5.854h9v-2zM7.649 2.916c0.23-0.432 0.308-0.516 0.817-0.516h3.067c0.509 0 0.588 0.084 0.816 0.516 0.086 0.16 0.318 0.6 0.575 1.084h-5.85c0.257-0.484 0.489-0.924 0.575-1.084zM11 15h-2v-2h-8.5c0 0 0.124 1.797 0.199 3.322 0.031 0.633 0.218 1.678 1.8 1.678h15.001c1.582 0 1.765-1.047 1.8-1.678 0.087-1.568 0.2-3.322 0.2-3.322h-8.5v2z"></path>
</symbol>
<symbol id="icon-calendar" viewBox="0 0 20 20">
<path d="M17 3h-1v2h-3v-2h-6v2h-3v-2h-1c-1.101 0-2 0.9-2 2v12c0 1.1 0.899 2 2 2h14c1.1 0 2-0.9 2-2v-12c0-1.1-0.9-2-2-2zM17 17h-14v-8h14v8zM6.5 1h-2v3.5h2v-3.5zM15.5 1h-2v3.5h2v-3.5z"></path>
</symbol>
<symbol id="icon-help" viewBox="0 0 20 20">
<path d="M14.090 2.233c-1.14-0.822-2.572-1.233-4.296-1.233-1.311 0-2.418 0.289-3.317 0.868-1.427 0.906-2.185 2.445-2.277 4.615h3.307c0-0.633 0.185-1.24 0.553-1.828 0.369-0.586 0.995-0.879 1.878-0.879 0.898 0 1.517 0.238 1.854 0.713 0.339 0.477 0.508 1.004 0.508 1.582 0 0.504-0.252 0.965-0.557 1.383-0.167 0.244-0.387 0.469-0.661 0.674 0 0-1.793 1.15-2.58 2.074-0.456 0.535-0.497 1.338-0.538 2.488-0.002 0.082 0.029 0.252 0.315 0.252s2.316 0 2.571 0c0.256 0 0.309-0.189 0.312-0.274 0.018-0.418 0.064-0.633 0.141-0.875 0.144-0.457 0.538-0.855 0.979-1.199l0.91-0.627c0.822-0.641 1.477-1.166 1.767-1.578 0.494-0.676 0.842-1.51 0.842-2.5-0.001-1.615-0.571-2.832-1.711-3.656zM9.741 14.924c-1.139-0.035-2.079 0.754-2.115 1.99-0.035 1.234 0.858 2.051 1.998 2.084 1.189 0.035 2.104-0.727 2.141-1.963 0.034-1.236-0.834-2.076-2.024-2.111z"></path>
</symbol>
<symbol id="icon-light-down" viewBox="0 0 20 20">
<path d="M10 6.797c-1.775 0-3.2 1.426-3.2 3.201 0 1.773 1.425 3.199 3.2 3.199s3.199-1.426 3.199-3.199c0-1.775-1.425-3.201-3.199-3.201zM10 12.047c-1.133 0-2.051-0.916-2.051-2.049s0.918-2.051 2.051-2.051c1.132 0 2.050 0.918 2.050 2.051s-0.919 2.049-2.050 2.049zM15 5c-0.312-0.312-0.883-0.248-1.273 0.142s-0.453 0.959-0.141 1.272 0.882 0.25 1.273-0.141c0.39-0.39 0.453-0.961 0.141-1.273zM5.142 13.729c-0.391 0.39-0.454 0.959-0.142 1.271s0.882 0.25 1.273-0.141c0.391-0.391 0.454-0.961 0.142-1.273s-0.883-0.248-1.273 0.143zM5 5c-0.312 0.312-0.249 0.883 0.141 1.273s0.961 0.453 1.273 0.141 0.249-0.883-0.142-1.273c-0.389-0.389-0.96-0.453-1.272-0.141zM13.727 14.857c0.39 0.391 0.96 0.455 1.273 0.143s0.249-0.883-0.142-1.274c-0.391-0.391-0.96-0.453-1.273-0.141s-0.248 0.882 0.142 1.272zM10 4.998c0.441 0 0.8-0.447 0.8-1s-0.359-0.998-0.8-0.998c-0.442 0-0.801 0.445-0.801 0.998s0.358 1 0.801 1zM10 17c0.441 0 0.8-0.447 0.8-1s-0.358-0.998-0.799-0.998c-0.442 0-0.801 0.445-0.801 0.998s0.357 1 0.8 1zM5 10c0-0.441-0.45-0.8-1.003-0.8s-0.997 0.359-0.997 0.8c0 0.442 0.444 0.8 0.997 0.8s1.003-0.358 1.003-0.8zM17 10c0-0.441-0.448-0.8-1.001-0.8s-0.999 0.359-0.999 0.8c0 0.442 0.446 0.8 0.999 0.8s1.001-0.358 1.001-0.8z"></path>
</symbol>
<symbol id="icon-mail" viewBox="0 0 20 20">
<path d="M1.574 5.286c0.488 0.262 7.248 3.894 7.5 4.029s0.578 0.199 0.906 0.199c0.328 0 0.654-0.064 0.906-0.199s7.012-3.767 7.5-4.029c0.489-0.263 0.951-1.286 0.054-1.286h-16.919c-0.897 0-0.435 1.023 0.053 1.286zM18.613 7.489c-0.555 0.289-7.387 3.849-7.727 4.027s-0.578 0.199-0.906 0.199-0.566-0.021-0.906-0.199-7.133-3.739-7.688-4.028c-0.39-0.204-0.386 0.035-0.386 0.219s0 7.293 0 7.293c0 0.42 0.566 1 1 1h16c0.434 0 1-0.58 1-1 0 0 0-7.108 0-7.292s0.004-0.423-0.387-0.219z"></path>
</symbol>
<symbol id="icon-menu" viewBox="0 0 20 20">
<path d="M16.4 9h-12.8c-0.552 0-0.6 0.447-0.6 1s0.048 1 0.6 1h12.8c0.552 0 0.6-0.447 0.6-1s-0.048-1-0.6-1zM16.4 13h-12.8c-0.552 0-0.6 0.447-0.6 1s0.048 1 0.6 1h12.8c0.552 0 0.6-0.447 0.6-1s-0.048-1-0.6-1zM3.6 7h12.8c0.552 0 0.6-0.447 0.6-1s-0.048-1-0.6-1h-12.8c-0.552 0-0.6 0.447-0.6 1s0.048 1 0.6 1z"></path>
</symbol>
<symbol id="icon-user1" viewBox="0 0 20 20">
<path d="M7.725 2.146c-1.016 0.756-1.289 1.953-1.239 2.59 0.064 0.779 0.222 1.793 0.222 1.793s-0.313 0.17-0.313 0.854c0.109 1.717 0.683 0.976 0.801 1.729 0.284 1.814 0.933 1.491 0.933 2.481 0 1.649-0.68 2.42-2.803 3.334-2.13 0.918-4.326 2.073-4.326 4.073v1h18v-1c0-2-2.197-3.155-4.328-4.072-2.123-0.914-2.801-1.684-2.801-3.334 0-0.99 0.647-0.667 0.932-2.481 0.119-0.753 0.692-0.012 0.803-1.729 0-0.684-0.314-0.854-0.314-0.854s0.158-1.014 0.221-1.793c0.065-0.817-0.398-2.561-2.3-3.096-0.333-0.34-0.558-0.881 0.466-1.424-2.24-0.105-2.761 1.067-3.954 1.929z"></path>
</symbol>
<symbol id="icon-facebook-with-circle" viewBox="0 0 20 20">
<path d="M10 0.4c-5.302 0-9.6 4.298-9.6 9.6s4.298 9.6 9.6 9.6 9.6-4.298 9.6-9.6-4.298-9.6-9.6-9.6zM12.274 7.034h-1.443c-0.171 0-0.361 0.225-0.361 0.524v1.042h1.805l-0.273 1.486h-1.532v4.461h-1.703v-4.461h-1.545v-1.486h1.545v-0.874c0-1.254 0.87-2.273 2.064-2.273h1.443v1.581z"></path>
</symbol>
<symbol id="icon-twitter" viewBox="0 0 20 20">
<path d="M17.316 6.246c0.008 0.162 0.011 0.326 0.011 0.488 0 4.99-3.797 10.742-10.74 10.742-2.133 0-4.116-0.625-5.787-1.697 0.296 0.035 0.596 0.053 0.9 0.053 1.77 0 3.397-0.604 4.688-1.615-1.651-0.031-3.046-1.121-3.526-2.621 0.23 0.043 0.467 0.066 0.71 0.066 0.345 0 0.679-0.045 0.995-0.131-1.727-0.348-3.028-1.873-3.028-3.703 0-0.016 0-0.031 0-0.047 0.509 0.283 1.092 0.453 1.71 0.473-1.013-0.678-1.68-1.832-1.68-3.143 0-0.691 0.186-1.34 0.512-1.898 1.861 2.285 4.644 3.787 7.781 3.945-0.064-0.277-0.097-0.564-0.097-0.861 0-2.084 1.689-3.773 3.774-3.773 1.086 0 2.067 0.457 2.756 1.191 0.859-0.17 1.667-0.484 2.397-0.916-0.282 0.881-0.881 1.621-1.66 2.088 0.764-0.092 1.49-0.293 2.168-0.594-0.506 0.758-1.146 1.422-1.884 1.953z"></path>
</symbol>
<symbol id="icon-youtube" viewBox="0 0 20 20">
<path d="M10 2.3c-9.828 0-10 0.874-10 7.7s0.172 7.7 10 7.7 10-0.874 10-7.7-0.172-7.7-10-7.7zM13.205 10.334l-4.49 2.096c-0.393 0.182-0.715-0.022-0.715-0.456v-3.948c0-0.433 0.322-0.638 0.715-0.456l4.49 2.096c0.393 0.184 0.393 0.484 0 0.668z"></path>
</symbol>
</defs>
</svg>